<?xml version="1.0" encoding="UTF-8" standalone="no"?>
<!DOCTYPE svg PUBLIC "-//W3C//DTD SVG 1.1//EN" "http://www.w3.org/Graphics/SVG/1.1/DTD/svg11.dtd">
<svg width="100%" height="100%" viewBox="0 0 640 242" version="1.1" xmlns="http://www.w3.org/2000/svg" xmlns:xlink="http://www.w3.org/1999/xlink" xml:space="preserve" xmlns:serif="http://www.serif.com/" style="fill-rule:evenodd;clip-rule:evenodd;">
    <g transform="matrix(1,0,0,1.14992,0,0)">
        <rect x="0" y="0" width="640" height="210" style="fill:white;"/>
        <g transform="matrix(1,0,0,0.869627,340.178,203.287)">
            <text x="-42.64px" y="0px" style="font-family:'ArialMT', 'Arial', sans-serif;font-size:16.5px;">macrosteps</text>
        </g>
    </g>
    <g transform="matrix(1,0,0,1,0,25.483)">
        <rect x="52.167" y="11.811" width="576.023" height="166.604" style="fill:white;"/>
    </g>
    <g transform="matrix(1,0,0,1,0,25.483)">
        <path d="M68.47,178.415L68.47,11.811" style="fill:none;fill-rule:nonzero;stroke:black;stroke-opacity:0.1;stroke-width:0.5px;"/>
    </g>
    <g transform="matrix(1,0,0,1,0,25.483)">
        <path d="M177.153,178.415L177.153,11.811" style="fill:none;fill-rule:nonzero;stroke:black;stroke-opacity:0.1;stroke-width:0.5px;"/>
    </g>
    <g transform="matrix(1,0,0,1,0,25.483)">
        <path d="M285.838,178.415L285.838,11.811" style="fill:none;fill-rule:nonzero;stroke:black;stroke-opacity:0.1;stroke-width:0.5px;"/>
    </g>
    <g transform="matrix(1,0,0,1,0,25.483)">
        <path d="M394.52,178.415L394.52,11.811" style="fill:none;fill-rule:nonzero;stroke:black;stroke-opacity:0.1;stroke-width:0.5px;"/>
    </g>
    <g transform="matrix(1,0,0,1,0,25.483)">
        <path d="M503.203,178.415L503.203,11.811" style="fill:none;fill-rule:nonzero;stroke:black;stroke-opacity:0.1;stroke-width:0.5px;"/>
    </g>
    <g transform="matrix(1,0,0,1,0,25.483)">
        <path d="M611.888,178.415L611.888,11.811" style="fill:none;fill-rule:nonzero;stroke:black;stroke-opacity:0.1;stroke-width:0.5px;"/>
    </g>
    <g transform="matrix(1,0,0,1,0,25.483)">
        <path d="M52.167,160.602L628.19,160.602" style="fill:none;fill-rule:nonzero;stroke:black;stroke-opacity:0.1;stroke-width:0.5px;"/>
    </g>
    <g transform="matrix(1,0,0,1,0,25.483)">
        <path d="M52.167,127.858L628.19,127.858" style="fill:none;fill-rule:nonzero;stroke:black;stroke-opacity:0.1;stroke-width:0.5px;"/>
    </g>
    <g transform="matrix(1,0,0,1,0,25.483)">
        <path d="M52.167,95.113L628.19,95.113" style="fill:none;fill-rule:nonzero;stroke:black;stroke-opacity:0.1;stroke-width:0.5px;"/>
    </g>
    <g transform="matrix(1,0,0,1,0,25.483)">
        <path d="M52.167,62.369L628.19,62.369" style="fill:none;fill-rule:nonzero;stroke:black;stroke-opacity:0.1;stroke-width:0.5px;"/>
    </g>
    <g transform="matrix(1,0,0,1,0,25.483)">
        <path d="M52.167,29.624L628.19,29.624" style="fill:none;fill-rule:nonzero;stroke:black;stroke-opacity:0.1;stroke-width:0.5px;"/>
    </g>
    <g transform="matrix(1,0,0,1,0,25.483)">
        <path d="M52.167,178.415L628.19,178.415" style="fill:none;fill-rule:nonzero;stroke:black;stroke-width:1px;"/>
    </g>
    <g transform="matrix(1,0,0,1,0,25.483)">
        <path d="M52.167,178.415L52.167,11.811" style="fill:none;fill-rule:nonzero;stroke:black;stroke-width:1px;"/>
    </g>
    <g transform="matrix(1,0,0,1,0,25.483)">
        <path d="M68.47,178.415L68.47,176.416" style="fill:none;fill-rule:nonzero;stroke:black;stroke-width:1px;"/>
    </g>
    <g transform="matrix(1,0,0,1,0,25.483)">
        <path d="M177.153,178.415L177.153,176.416" style="fill:none;fill-rule:nonzero;stroke:black;stroke-width:1px;"/>
    </g>
    <g transform="matrix(1,0,0,1,0,25.483)">
        <path d="M285.838,178.415L285.838,176.416" style="fill:none;fill-rule:nonzero;stroke:black;stroke-width:1px;"/>
    </g>
    <g transform="matrix(1,0,0,1,0,25.483)">
        <path d="M394.52,178.415L394.52,176.416" style="fill:none;fill-rule:nonzero;stroke:black;stroke-width:1px;"/>
    </g>
    <g transform="matrix(1,0,0,1,0,25.483)">
        <path d="M503.203,178.415L503.203,176.416" style="fill:none;fill-rule:nonzero;stroke:black;stroke-width:1px;"/>
    </g>
    <g transform="matrix(1,0,0,1,0,25.483)">
        <path d="M611.888,178.415L611.888,176.416" style="fill:none;fill-rule:nonzero;stroke:black;stroke-width:1px;"/>
    </g>
    <g transform="matrix(1,0,0,1,0,25.483)">
        <path d="M52.167,160.602L59.08,160.602" style="fill:none;fill-rule:nonzero;stroke:black;stroke-width:1px;"/>
    </g>
    <g transform="matrix(1,0,0,1,0,25.483)">
        <path d="M52.167,127.858L59.08,127.858" style="fill:none;fill-rule:nonzero;stroke:black;stroke-width:1px;"/>
    </g>
    <g transform="matrix(1,0,0,1,0,25.483)">
        <path d="M52.167,95.113L59.08,95.113" style="fill:none;fill-rule:nonzero;stroke:black;stroke-width:1px;"/>
    </g>
    <g transform="matrix(1,0,0,1,0,25.483)">
        <path d="M52.167,62.369L59.08,62.369" style="fill:none;fill-rule:nonzero;stroke:black;stroke-width:1px;"/>
    </g>
    <g transform="matrix(1,0,0,1,0,25.483)">
        <path d="M52.167,29.624L59.08,29.624" style="fill:none;fill-rule:nonzero;stroke:black;stroke-width:1px;"/>
    </g>
    <g transform="matrix(1,0,0,1,68.4698,217.598)">
        <text x="-3.337px" y="0px" style="font-family:'ArialMT', 'Arial', sans-serif;font-size:12px;">0</text>
    </g>
    <g transform="matrix(1,0,0,1,177.153,217.598)">
        <text x="-10.011px" y="0px" style="font-family:'ArialMT', 'Arial', sans-serif;font-size:12px;">200</text>
    </g>
    <g transform="matrix(1,0,0,1,285.837,217.598)">
        <text x="-10.011px" y="0px" style="font-family:'ArialMT', 'Arial', sans-serif;font-size:12px;">400</text>
    </g>
    <g transform="matrix(1,0,0,1,394.52,217.598)">
        <text x="-10.011px" y="0px" style="font-family:'ArialMT', 'Arial', sans-serif;font-size:12px;">600</text>
    </g>
    <g transform="matrix(1,0,0,1,503.202,217.598)">
        <text x="-10.011px" y="0px" style="font-family:'ArialMT', 'Arial', sans-serif;font-size:12px;">800</text>
    </g>
    <g transform="matrix(1,0,0,1,611.888,217.598)">
        <text x="-13.348px" y="0px" style="font-family:'ArialMT', 'Arial', sans-serif;font-size:12px;">1000</text>
    </g>
    <g transform="matrix(1,0,0,1,45.7672,190.46)">
        <text x="-17.344px" y="0px" style="font-family:'ArialMT', 'Arial', sans-serif;font-size:12px;">-10</text>
    </g>
    <g transform="matrix(1,0,0,1,45.7672,157.716)">
        <text x="-10.67px" y="0px" style="font-family:'ArialMT', 'Arial', sans-serif;font-size:12px;">-5</text>
    </g>
    <g transform="matrix(1,0,0,1,45.7672,124.971)">
        <text x="-6.674px" y="0px" style="font-family:'ArialMT', 'Arial', sans-serif;font-size:12px;">0</text>
    </g>
    <g transform="matrix(1,0,0,1,45.7672,92.2267)">
        <text x="-6.674px" y="0px" style="font-family:'ArialMT', 'Arial', sans-serif;font-size:12px;">5</text>
    </g>
    <g transform="matrix(1,0,0,1,45.7672,59.482)">
        <text x="-13.348px" y="0px" style="font-family:'ArialMT', 'Arial', sans-serif;font-size:12px;">10</text>
    </g>
    <g transform="matrix(-3.82857e-16,-1,1,-3.82857e-16,16.068,120.596)">
        <text x="-36.082px" y="0px" style="font-family:'ArialMT', 'Arial', sans-serif;font-size:16.5px;">dif<tspan x="-18.953px -14.369px " y="0px 0px ">fe</tspan>rence</text>
    </g>
    <g transform="matrix(1,0,0,1,0,25.483)">
        <path d="M69.013,95.113L69.013,82.015L69.557,82.015L69.557,95.113L70.1,95.113L70.1,108.211L71.73,108.211L71.73,82.015L72.274,82.015L72.274,147.505L72.817,147.505L72.817,68.918L73.361,68.918L73.361,101.662L73.904,101.662L73.904,68.918L74.991,68.918L74.991,88.564L75.534,88.564L75.534,55.82L76.078,55.82L76.078,68.918L76.621,68.918L76.621,108.211L77.164,108.211L77.164,68.918L77.708,68.918L77.708,82.015L78.251,82.015L78.251,108.211L78.795,108.211L78.795,68.918L79.338,68.918L79.338,121.309L79.882,121.309L79.882,82.015L80.425,82.015L80.425,95.113L80.968,95.113L80.968,134.407L82.055,134.407L82.055,95.113L82.599,95.113L82.599,88.564L83.142,88.564L83.142,121.309L83.685,121.309L83.685,82.015L84.229,82.015L84.229,127.858L84.772,127.858L84.772,82.015L85.316,82.015L85.316,121.309L85.859,121.309L85.859,134.407L86.403,134.407L86.403,108.211L86.946,108.211L86.946,82.015L88.033,82.015L88.033,95.113L88.576,95.113L88.576,134.407L89.12,134.407L89.12,95.113L89.663,95.113L89.663,134.407L90.206,134.407L90.206,82.015L90.75,82.015L90.75,121.309L91.293,121.309L91.293,108.211L91.837,108.211L91.837,95.113L92.38,95.113L92.38,82.015L92.924,82.015L92.924,95.113L94.01,95.113L94.01,82.015L94.554,82.015L94.554,68.918L95.097,68.918L95.097,134.407L95.641,134.407L95.641,95.113L96.184,95.113L96.184,68.918L96.727,68.918L96.727,82.015L97.271,82.015L97.271,95.113L97.814,95.113L97.814,82.015L98.358,82.015L98.358,95.113L98.901,95.113L98.901,82.015L99.445,82.015L99.445,121.309L99.988,121.309L99.988,108.211L101.075,108.211L101.075,68.918L101.618,68.918L101.618,95.113L102.162,95.113L102.162,108.211L102.705,108.211L102.705,82.015L103.248,82.015L103.248,62.369L103.792,62.369L103.792,16.526L104.335,16.526L104.335,82.015L105.966,82.015L105.966,42.722L106.509,42.722L106.509,68.918L107.596,68.918L107.596,55.82L108.139,55.82L108.139,82.015L108.683,82.015L108.683,108.211L109.226,108.211L109.226,68.918L109.769,68.918L109.769,95.113L110.313,95.113L110.313,121.309L110.856,121.309L110.856,82.015L111.943,82.015L111.943,127.858L112.487,127.858L112.487,82.015L113.03,82.015L113.03,108.211L113.573,108.211L113.573,101.662L114.117,101.662L114.117,75.467L114.66,75.467L114.66,108.211L115.204,108.211L115.204,82.015L115.747,82.015L115.747,114.76L116.29,114.76L116.29,108.211L116.834,108.211L116.834,42.722L117.377,42.722L117.377,88.564L117.921,88.564L117.921,68.918L119.007,68.918L119.007,36.173L119.551,36.173L119.551,62.369L120.094,62.369L120.094,95.113L120.638,95.113L120.638,108.211L121.181,108.211L121.181,82.015L122.268,82.015L122.268,121.309L122.811,121.309L122.811,108.211L123.355,108.211L123.355,82.015L123.898,82.015L123.898,114.76L124.442,114.76L124.442,95.113L125.528,95.113L125.528,82.015L126.072,82.015L126.072,95.113L126.615,95.113L126.615,82.015L127.159,82.015L127.159,95.113L127.702,95.113L127.702,108.211L128.245,108.211L128.245,68.918L128.789,68.918L128.789,95.113L129.332,95.113L129.332,82.015L129.876,82.015L129.876,42.722L130.419,42.722L130.419,88.564L130.963,88.564L130.963,160.602L131.506,160.602L131.506,55.82L132.05,55.82L132.05,134.407L132.593,134.407L132.593,95.113L133.136,95.113L133.136,36.173L133.68,36.173L133.68,82.015L134.223,82.015L134.223,108.211L135.31,108.211L135.31,121.309L135.853,121.309L135.853,95.113L136.94,95.113L136.94,68.918L137.484,68.918L137.484,42.722L138.027,42.722L138.027,134.407L138.571,134.407L138.571,68.918L139.114,68.918L139.114,82.015L140.201,82.015L140.201,95.113L140.744,95.113L140.744,160.602L141.288,160.602L141.288,134.407L141.831,134.407L141.831,88.564L142.374,88.564L142.374,62.369L142.918,62.369L142.918,134.407L143.461,134.407L143.461,82.015L144.005,82.015L144.005,108.211L144.548,108.211L144.548,82.015L145.092,82.015L145.092,95.113L145.635,95.113L145.635,160.602L146.178,160.602L146.178,121.309L146.722,121.309L146.722,49.271L147.265,49.271L147.265,55.82L147.809,55.82L147.809,88.564L148.352,88.564L148.352,101.662L148.895,101.662L148.895,82.015L149.982,82.015L149.982,121.309L150.526,121.309L150.526,55.82L151.069,55.82L151.069,68.918L152.156,68.918L152.156,108.211L152.699,108.211L152.699,127.858L153.243,127.858L153.243,95.113L153.786,95.113L153.786,108.211L154.33,108.211L154.33,121.309L154.873,121.309L154.873,95.113L155.416,95.113L155.416,82.015L156.503,82.015L156.503,121.309L157.047,121.309L157.047,82.015L157.59,82.015L157.59,68.918L158.134,68.918L158.134,134.407L158.677,134.407L158.677,127.858L159.22,127.858L159.22,82.015L159.764,82.015L159.764,95.113L160.307,95.113L160.307,68.918L160.851,68.918L160.851,108.211L161.394,108.211L161.394,55.82L161.938,55.82L161.938,95.113L162.481,95.113L162.481,82.015L163.024,82.015L163.024,114.76L163.568,114.76L163.568,82.015L164.111,82.015L164.111,108.211L164.655,108.211L164.655,82.015L165.198,82.015L165.198,108.211L165.741,108.211L165.741,134.407L166.285,134.407L166.285,108.211L166.828,108.211L166.828,121.309L167.372,121.309L167.372,108.211L167.915,108.211L167.915,121.309L168.458,121.309L168.458,108.211L169.002,108.211L169.002,121.309L169.545,121.309L169.545,95.113L170.089,95.113L170.089,68.918L171.176,68.918L171.176,108.211L171.719,108.211L171.719,101.662L172.262,101.662L172.262,82.015L172.806,82.015L172.806,108.211L173.349,108.211L173.349,134.407L173.893,134.407L173.893,82.015L174.436,82.015L174.436,121.309L174.98,121.309L174.98,108.211L175.523,108.211L175.523,95.113L176.066,95.113L176.066,108.211L177.153,108.211L177.153,82.015L177.696,82.015L177.696,108.211L178.24,108.211L178.24,147.505L178.783,147.505L178.783,88.564L179.327,88.564L179.327,75.467L180.957,75.467L180.957,114.76L181.5,114.76L181.5,88.564L182.044,88.564L182.044,55.82L182.587,55.82L182.587,68.918L183.674,68.918L183.674,95.113L185.304,95.113L185.304,121.309L185.848,121.309L185.848,82.015L186.391,82.015L186.391,68.918L186.935,68.918L186.935,82.015L187.478,82.015L187.478,108.211L188.022,108.211L188.022,114.76L188.565,114.76L188.565,121.309L189.108,121.309L189.108,134.407L189.652,134.407L189.652,127.858L190.738,127.858L190.738,82.015L191.282,82.015L191.282,121.309L191.825,121.309L191.825,147.505L192.369,147.505L192.369,160.602L192.912,160.602L192.912,55.82L193.456,55.82L193.456,82.015L193.999,82.015L193.999,68.918L194.543,68.918L194.543,-22.767L195.086,-22.767L195.086,75.467L195.629,75.467L195.629,68.918L196.173,68.918L196.173,121.309L196.716,121.309L196.716,134.407L197.26,134.407L197.26,82.015L197.803,82.015L197.803,95.113L198.346,95.113L198.346,121.309L199.976,121.309L199.976,134.407L200.52,134.407L200.52,95.113L201.064,95.113L201.064,160.602L201.607,160.602L201.607,108.211L202.15,108.211L202.15,55.82L202.694,55.82L202.694,108.211L203.237,108.211L203.237,134.407L203.78,134.407L203.78,36.173L204.324,36.173L204.324,108.211L204.867,108.211L204.867,101.662L205.411,101.662L205.411,95.113L205.954,95.113L205.954,101.662L206.498,101.662L206.498,121.309L207.041,121.309L207.041,95.113L207.585,95.113L207.585,75.467L208.128,75.467L208.128,68.918L208.671,68.918L208.671,88.564L209.215,88.564L209.215,108.211L209.758,108.211L209.758,95.113L210.302,95.113L210.302,42.722L210.845,42.722L210.845,108.211L211.388,108.211L211.388,95.113L211.932,95.113L211.932,68.918L212.475,68.918L212.475,29.624L213.018,29.624L213.018,55.82L213.562,55.82L213.562,95.113L214.106,95.113L214.106,68.918L214.649,68.918L214.649,82.015L215.736,82.015L215.736,68.918L216.279,68.918L216.279,95.113L218.453,95.113L218.453,108.211L218.996,108.211L218.996,95.113L219.54,95.113L219.54,29.624L220.083,29.624L220.083,82.015L220.627,82.015L220.627,108.211L221.17,108.211L221.17,95.113L221.713,95.113L221.713,55.82L222.257,55.82L222.257,68.918L222.8,68.918L222.8,95.113L223.344,95.113L223.344,55.82L224.43,55.82L224.43,82.015L224.974,82.015L224.974,121.309L225.517,121.309L225.517,55.82L226.061,55.82L226.061,95.113L226.604,95.113L226.604,108.211L227.148,108.211L227.148,62.369L227.691,62.369L227.691,114.76L228.234,114.76L228.234,82.015L228.778,82.015L228.778,101.662L229.321,101.662L229.321,108.211L229.865,108.211L229.865,121.309L230.408,121.309L230.408,95.113L230.951,95.113L230.951,82.015L232.038,82.015L232.038,88.564L232.582,88.564L232.582,55.82L233.125,55.82L233.125,42.722L234.212,42.722L234.212,68.918L234.755,68.918L234.755,82.015L235.299,82.015L235.299,121.309L235.842,121.309L235.842,114.76L236.386,114.76L236.386,108.211L236.929,108.211L236.929,147.505L237.472,147.505L237.472,121.309L238.016,121.309L238.016,114.76L238.559,114.76L238.559,75.467L239.103,75.467L239.103,134.407L239.646,134.407L239.646,121.309L240.733,121.309L240.733,82.015L241.276,82.015L241.276,68.918L241.82,68.918L241.82,95.113L242.363,95.113L242.363,82.015L243.45,82.015L243.45,95.113L244.537,95.113L244.537,134.407L245.08,134.407L245.08,101.662L245.624,101.662L245.624,36.173L246.167,36.173L246.167,160.602L246.711,160.602L246.711,62.369L247.254,62.369L247.254,154.054L247.797,154.054L247.797,134.407L248.341,134.407L248.341,114.76L248.884,114.76L248.884,108.211L249.428,108.211L249.428,121.309L249.971,121.309L249.971,108.211L251.058,108.211L251.058,82.015L251.6,82.015L251.6,68.918L252.145,68.918L252.145,114.76L252.688,114.76L252.688,101.662L253.232,101.662L253.232,147.505L253.775,147.505L253.775,82.015L254.318,82.015L254.318,134.407L254.863,134.407L254.863,121.309L255.405,121.309L255.405,95.113L256.493,95.113L256.493,55.82L257.035,55.82L257.035,121.309L257.577,121.309L257.577,62.369L258.123,62.369L258.123,108.211L258.665,108.211L258.665,160.602L259.21,160.602L259.21,108.211L259.753,108.211L259.753,121.309L260.295,121.309L260.295,55.82L260.84,55.82L260.84,82.015L261.383,82.015L261.383,108.211L261.925,108.211L261.925,121.309L262.47,121.309L262.47,82.015L263.013,82.015L263.013,140.956L263.558,140.956L263.558,108.211L264.1,108.211L264.1,134.407L265.188,134.407L265.188,95.113L265.73,95.113L265.73,173.7L266.273,173.7L266.273,68.918L266.818,68.918L266.818,95.113L267.36,95.113L267.36,55.82L267.902,55.82L267.902,82.015L268.448,82.015L268.448,95.113L268.99,95.113L268.99,82.015L269.535,82.015L269.535,121.309L270.078,121.309L270.078,108.211L270.62,108.211L270.62,88.564L271.165,88.564L271.165,108.211L272.25,108.211L272.25,82.015L272.795,82.015L272.795,68.918L273.338,68.918L273.338,95.113L274.425,95.113L274.425,101.662L274.967,101.662L274.967,95.113L275.513,95.113L275.513,108.211L276.055,108.211L276.055,95.113L277.143,95.113L277.143,108.211L277.685,108.211L277.685,160.602L278.228,160.602L278.228,121.309L278.773,121.309L278.773,108.211L279.315,108.211L279.315,68.918L280.402,68.918L280.402,108.211L280.945,108.211L280.945,88.564L281.49,88.564L281.49,140.956L282.033,140.956L282.033,134.407L282.575,134.407L282.575,95.113L283.12,95.113L283.12,82.015L284.205,82.015L284.205,68.918L284.75,68.918L284.75,108.211L286.38,108.211L286.38,16.526L286.923,16.526L286.923,108.211L287.467,108.211L287.467,68.918L288.01,68.918L288.01,114.76L288.553,114.76L288.553,82.015L289.098,82.015L289.098,68.918L289.64,68.918L289.64,121.309L290.728,121.309L290.728,95.113L291.27,95.113L291.27,82.015L291.815,82.015L291.815,88.564L292.9,88.564L292.9,82.015L293.445,82.015L293.445,75.467L293.988,75.467L293.988,114.76L294.53,114.76L294.53,121.309L295.618,121.309L295.618,140.956L296.163,140.956L296.163,147.505L296.705,147.505L296.705,95.113L297.248,95.113L297.248,114.76L297.793,114.76L297.793,49.271L298.335,49.271L298.335,108.211L298.878,108.211L298.878,68.918L299.423,68.918L299.423,147.505L299.965,147.505L299.965,134.407L300.508,134.407L300.508,68.918L301.053,68.918L301.053,95.113L301.595,95.113L301.595,108.211L302.14,108.211L302.14,95.113L302.683,95.113L302.683,82.015L303.225,82.015L303.225,88.564L303.77,88.564L303.77,95.113L304.313,95.113L304.313,82.015L304.855,82.015L304.855,108.211L305.4,108.211L305.4,82.015L305.943,82.015L305.943,42.722L306.485,42.722L306.485,121.309L307.03,121.309L307.03,95.113L307.573,95.113L307.573,101.662L308.118,101.662L308.118,121.309L308.66,121.309L308.66,88.564L309.203,88.564L309.203,121.309L310.29,121.309L310.29,95.113L310.833,95.113L310.833,108.211L311.378,108.211L311.378,121.309L311.92,121.309L311.92,108.211L312.465,108.211L312.465,82.015L313.008,82.015L313.008,95.113L313.55,95.113L313.55,121.309L314.095,121.309L314.095,68.918L314.638,68.918L314.638,95.113L315.18,95.113L315.18,82.015L316.268,82.015L316.268,127.858L316.81,127.858L316.81,82.015L317.355,82.015L317.355,95.113L317.898,95.113L317.898,3.428L318.443,3.428L318.443,108.211L320.073,108.211L320.073,68.918L320.615,68.918L320.615,121.309L321.158,121.309L321.158,68.918L321.703,68.918L321.703,82.015L322.245,82.015L322.245,29.624L322.788,29.624L322.788,95.113L323.333,95.113L323.333,147.505L323.875,147.505L323.875,134.407L324.42,134.407L324.42,108.211L326.05,108.211L326.05,68.918L326.592,68.918L326.592,121.309L327.135,121.309L327.135,82.015L327.68,82.015L327.68,68.918L328.223,68.918L328.223,95.113L328.768,95.113L328.768,108.211L329.853,108.211L329.853,121.309L330.398,121.309L330.398,134.407L330.94,134.407L330.94,114.76L331.483,114.76L331.483,68.918L332.027,68.918L332.027,55.82L332.57,55.82L332.57,114.76L333.113,114.76L333.113,101.662L333.658,101.662L333.658,68.918L334.2,68.918L334.2,108.211L335.288,108.211L335.288,121.309L335.83,121.309L335.83,82.015L336.375,82.015L336.375,134.407L336.918,134.407L336.918,95.113L338.005,95.113L338.005,160.602L338.548,160.602L338.548,108.211L339.09,108.211L339.09,95.113L339.635,95.113L339.635,101.662L340.178,101.662L340.178,82.015L340.723,82.015L340.723,95.113L341.808,95.113L341.808,82.015L342.353,82.015L342.353,68.918L342.895,68.918L342.895,108.211L343.983,108.211L343.983,95.113L344.525,95.113L344.525,121.309L345.07,121.309L345.07,147.505L345.613,147.505L345.613,82.015L347.243,82.015L347.243,95.113L348.33,95.113L348.33,82.015L348.873,82.015L348.873,42.722L349.415,42.722L349.415,68.918L349.96,68.918L349.96,82.015L350.503,82.015L350.503,95.113L351.048,95.113L351.048,108.211L351.59,108.211L351.59,95.113L352.133,95.113L352.133,101.662L352.678,101.662L352.678,82.015L353.22,82.015L353.22,121.309L353.763,121.309L353.763,134.407L354.308,134.407L354.308,95.113L354.85,95.113L354.85,68.918L355.395,68.918L355.395,55.82L355.938,55.82L355.938,88.564L356.48,88.564L356.48,95.113L357.025,95.113L357.025,108.211L357.568,108.211L357.568,82.015L358.11,82.015L358.11,108.211L358.655,108.211L358.655,62.369L359.198,62.369L359.198,95.113L359.74,95.113L359.74,121.309L360.285,121.309L360.285,95.113L360.828,95.113L360.828,82.015L361.373,82.015L361.373,95.113L361.915,95.113L361.915,82.015L362.458,82.015L362.458,36.173L363.003,36.173L363.003,101.662L363.545,101.662L363.545,121.309L364.087,121.309L364.087,75.467L364.633,75.467L364.633,108.211L365.175,108.211L365.175,114.76L365.717,114.76L365.717,140.956L366.263,140.956L366.263,68.918L366.805,68.918L366.805,82.015L367.35,82.015L367.35,75.467L367.893,75.467L367.893,82.015L368.435,82.015L368.435,108.211L368.98,108.211L368.98,95.113L369.523,95.113L369.523,108.211L370.065,108.211L370.065,95.113L370.61,95.113L370.61,82.015L371.698,82.015L371.698,88.564L372.24,88.564L372.24,82.015L372.783,82.015L372.783,134.407L373.328,134.407L373.328,108.211L373.87,108.211L373.87,68.918L374.413,68.918L374.413,36.173L374.958,36.173L374.958,108.211L375.5,108.211L375.5,29.624L376.043,29.624L376.043,68.918L377.13,68.918L377.13,140.956L377.675,140.956L377.675,121.309L378.76,121.309L378.76,68.918L379.305,68.918L379.305,121.309L379.848,121.309L379.848,167.151L380.39,167.151L380.39,95.113L380.935,95.113L380.935,42.722L381.478,42.722L381.478,140.956L382.02,140.956L382.02,108.211L382.565,108.211L382.565,68.918L383.108,68.918L383.108,108.211L384.195,108.211L384.195,42.722L384.738,42.722L384.738,36.173L385.283,36.173L385.283,62.369L385.825,62.369L385.825,95.113L386.368,95.113L386.368,62.369L386.913,62.369L386.913,88.564L387.455,88.564L387.455,127.858L388,127.858L388,121.309L388.543,121.309L388.543,95.113L390.173,95.113L390.173,68.918L390.715,68.918L390.715,121.309L391.26,121.309L391.26,101.662L391.803,101.662L391.803,108.211L392.345,108.211L392.345,49.271L392.89,49.271L392.89,62.369L393.433,62.369L393.433,101.662L393.978,101.662L393.978,95.113L394.52,95.113L394.52,68.918L395.063,68.918L395.063,95.113L396.15,95.113L396.15,68.918L396.693,68.918L396.693,108.211L397.238,108.211L397.238,82.015L397.78,82.015L397.78,88.564L398.323,88.564L398.323,95.113L399.41,95.113L399.41,88.564L399.955,88.564L399.955,101.662L400.498,101.662L400.498,114.76L401.04,114.76L401.04,140.956L401.585,140.956L401.585,95.113L402.128,95.113L402.128,108.211L402.67,108.211L402.67,68.918L403.215,68.918L403.215,82.015L403.758,82.015L403.758,95.113L404.303,95.113L404.303,62.369L404.845,62.369L404.845,108.211L405.388,108.211L405.388,82.015L405.933,82.015L405.933,95.113L406.475,95.113L406.475,134.407L407.563,134.407L407.563,101.662L408.105,101.662L408.105,68.918L408.648,68.918L408.648,108.211L409.193,108.211L409.193,82.015L409.735,82.015L409.735,121.309L410.28,121.309L410.28,147.505L410.823,147.505L410.823,121.309L411.91,121.309L411.91,108.211L412.453,108.211L412.453,95.113L412.995,95.113L412.995,68.918L413.54,68.918L413.54,95.113L414.083,95.113L414.083,82.015L414.625,82.015L414.625,55.82L415.17,55.82L415.17,101.662L415.712,101.662L415.712,127.858L416.258,127.858L416.258,49.271L416.8,49.271L416.8,95.113L417.342,95.113L417.342,82.015L417.888,82.015L417.888,134.407L418.43,134.407L418.43,95.113L418.973,95.113L418.973,108.211L419.518,108.211L419.518,121.309L420.06,121.309L420.06,82.015L420.605,82.015L420.605,75.467L421.147,75.467L421.147,134.407L421.69,134.407L421.69,68.918L422.235,68.918L422.235,121.309L422.777,121.309L422.777,134.407L423.32,134.407L423.32,55.82L423.865,55.82L423.865,95.113L424.408,95.113L424.408,101.662L424.95,101.662L424.95,75.467L425.495,75.467L425.495,82.015L426.038,82.015L426.038,121.309L426.583,121.309L426.583,82.015L427.125,82.015L427.125,108.211L427.668,108.211L427.668,55.82L428.212,55.82L428.212,121.309L428.755,121.309L428.755,75.467L429.298,75.467L429.298,82.015L429.842,82.015L429.842,95.113L430.385,95.113L430.385,121.309L430.928,121.309L430.928,42.722L431.473,42.722L431.473,108.211L432.015,108.211L432.015,88.564L432.56,88.564L432.56,75.467L433.103,75.467L433.103,82.015L433.645,82.015L433.645,95.113L434.19,95.113L434.19,68.918L434.733,68.918L434.733,75.467L435.275,75.467L435.275,114.76L435.82,114.76L435.82,160.602L436.363,160.602L436.363,55.82L436.908,55.82L436.908,88.564L437.45,88.564L437.45,68.918L437.993,68.918L437.993,108.211L438.538,108.211L438.538,82.015L440.71,82.015L440.71,95.113L441.798,95.113L441.798,68.918L442.885,68.918L442.885,42.722L443.428,42.722L443.428,101.662L443.97,101.662L443.97,121.309L444.515,121.309L444.515,134.407L445.058,134.407L445.058,82.015L446.145,82.015L446.145,95.113L446.688,95.113L446.688,82.015L448.318,82.015L448.318,95.113L448.863,95.113L448.863,108.211L449.405,108.211L449.405,95.113L449.948,95.113L449.948,62.369L450.493,62.369L450.493,108.211L451.035,108.211L451.035,121.309L451.578,121.309L451.578,154.054L452.123,154.054L452.123,95.113L452.665,95.113L452.665,108.211L453.21,108.211L453.21,82.015L454.84,82.015L454.84,88.564L455.925,88.564L455.925,82.015L456.47,82.015L456.47,75.467L457.013,75.467L457.013,101.662L457.555,101.662L457.555,82.015L458.1,82.015L458.1,108.211L458.643,108.211L458.643,55.82L459.188,55.82L459.188,101.662L459.73,101.662L459.73,82.015L460.272,82.015L460.272,29.624L460.818,29.624L460.818,101.662L461.36,101.662L461.36,68.918L462.448,68.918L462.448,121.309L462.99,121.309L462.99,108.211L463.533,108.211L463.533,121.309L464.078,121.309L464.078,134.407L465.165,134.407L465.165,114.76L465.708,114.76L465.708,82.015L466.25,82.015L466.25,95.113L466.795,95.113L466.795,108.211L467.337,108.211L467.337,36.173L467.88,36.173L467.88,101.662L468.425,101.662L468.425,95.113L469.513,95.113L469.513,82.015L470.055,82.015L470.055,108.211L470.598,108.211L470.598,82.015L471.143,82.015L471.143,42.722L471.685,42.722L471.685,82.015L472.228,82.015L472.228,108.211L472.772,108.211L472.772,121.309L473.315,121.309L473.315,82.015L473.858,82.015L473.858,42.722L474.402,42.722L474.402,95.113L474.945,95.113L474.945,108.211L475.49,108.211L475.49,68.918L476.033,68.918L476.033,101.662L476.575,101.662L476.575,127.858L477.12,127.858L477.12,101.662L477.663,101.662L477.663,95.113L479.293,95.113L479.293,121.309L479.835,121.309L479.835,42.722L480.38,42.722L480.38,68.918L480.923,68.918L480.923,95.113L481.467,95.113L481.467,147.505L482.01,147.505L482.01,108.211L482.553,108.211L482.553,95.113L483.098,95.113L483.098,82.015L483.64,82.015L483.64,108.211L484.183,108.211L484.183,55.82L484.728,55.82L484.728,121.309L485.27,121.309L485.27,68.918L485.815,68.918L485.815,101.662L486.358,101.662L486.358,134.407L486.9,134.407L486.9,108.211L487.445,108.211L487.445,82.015L488.53,82.015L488.53,134.407L489.618,134.407L489.618,68.918L490.16,68.918L490.16,108.211L490.705,108.211L490.705,42.722L491.248,42.722L491.248,95.113L491.793,95.113L491.793,82.015L492.335,82.015L492.335,55.82L492.878,55.82L492.878,82.015L493.965,82.015L493.965,68.918L494.508,68.918L494.508,88.564L495.053,88.564L495.053,121.309L495.595,121.309L495.595,82.015L496.683,82.015L496.683,68.918L497.225,68.918L497.225,147.505L497.77,147.505L497.77,95.113L498.855,95.113L498.855,114.76L499.4,114.76L499.4,95.113L499.943,95.113L499.943,114.76L500.485,114.76L500.485,108.211L501.03,108.211L501.03,121.309L501.573,121.309L501.573,108.211L502.118,108.211L502.118,68.918L502.66,68.918L502.66,75.467L503.748,75.467L503.748,147.505L504.29,147.505L504.29,108.211L504.833,108.211L504.833,114.76L505.378,114.76L505.378,108.211L505.92,108.211L505.92,160.602L506.462,160.602L506.462,101.662L507.008,101.662L507.008,108.211L507.55,108.211L507.55,121.309L508.095,121.309L508.095,82.015L508.638,82.015L508.638,101.662L509.725,101.662L509.725,147.505L510.268,147.505L510.268,82.015L510.81,82.015L510.81,108.211L511.355,108.211L511.355,55.82L511.897,55.82L511.897,68.918L512.44,68.918L512.44,95.113L512.985,95.113L512.985,68.918L513.528,68.918L513.528,134.407L514.073,134.407L514.073,82.015L514.615,82.015L514.615,147.505L515.158,147.505L515.158,82.015L515.703,82.015L515.703,36.173L516.245,36.173L516.245,82.015L517.333,82.015L517.333,55.82L517.875,55.82L517.875,68.918L518.42,68.918L518.42,108.211L518.962,108.211L518.962,95.113L519.505,95.113L519.505,55.82L520.05,55.82L520.05,134.407L520.592,134.407L520.592,108.211L521.135,108.211L521.135,82.015L521.68,82.015L521.68,134.407L522.222,134.407L522.222,88.564L522.765,88.564L522.765,75.467L523.31,75.467L523.31,88.564L524.398,88.564L524.398,82.015L524.94,82.015L524.94,134.407L525.483,134.407L525.483,82.015L526.028,82.015L526.028,55.82L526.57,55.82L526.57,121.309L527.113,121.309L527.113,95.113L527.658,95.113L527.658,121.309L528.742,121.309L528.742,95.113L529.288,95.113L529.288,82.015L529.83,82.015L529.83,121.309L530.375,121.309L530.375,82.015L530.918,82.015L530.918,108.211L532.005,108.211L532.005,82.015L532.548,82.015L532.548,62.369L533.09,62.369L533.09,121.309L533.635,121.309L533.635,108.211L534.178,108.211L534.178,101.662L534.723,101.662L534.723,68.918L535.265,68.918L535.265,127.858L535.808,127.858L535.808,95.113L536.353,95.113L536.353,134.407L536.895,134.407L536.895,160.602L537.438,160.602L537.438,82.015L538.525,82.015L538.525,68.918L539.613,68.918L539.613,95.113L540.155,95.113L540.155,55.82L540.7,55.82L540.7,82.015L541.242,82.015L541.242,55.82L541.785,55.82L541.785,108.211L542.33,108.211L542.33,95.113L542.872,95.113L542.872,82.015L543.415,82.015L543.415,95.113L543.96,95.113L543.96,68.918L544.503,68.918L544.503,95.113L545.045,95.113L545.045,68.918L545.59,68.918L545.59,82.015L546.133,82.015L546.133,95.113L546.678,95.113L546.678,147.505L547.22,147.505L547.22,121.309L547.763,121.309L547.763,42.722L548.308,42.722L548.308,62.369L548.85,62.369L548.85,55.82L549.393,55.82L549.393,134.407L549.938,134.407L549.938,121.309L550.48,121.309L550.48,82.015L551.025,82.015L551.025,121.309L551.568,121.309L551.568,95.113L552.11,95.113L552.11,68.918L552.655,68.918L552.655,95.113L553.74,95.113L553.74,82.015L554.285,82.015L554.285,68.918L554.828,68.918L554.828,108.211L555.37,108.211L555.37,55.82L555.915,55.82L555.915,82.015L556.458,82.015L556.458,55.82L557.003,55.82L557.003,134.407L557.545,134.407L557.545,95.113L558.088,95.113L558.088,68.918L559.175,68.918L559.175,134.407L559.718,134.407L559.718,68.918L560.263,68.918L560.263,82.015L560.805,82.015L560.805,95.113L561.348,95.113L561.348,108.211L561.893,108.211L561.893,147.505L562.435,147.505L562.435,101.662L562.98,101.662L562.98,134.407L563.523,134.407L563.523,55.82L564.065,55.82L564.065,108.211L564.61,108.211L564.61,82.015L565.153,82.015L565.153,108.211L565.695,108.211L565.695,114.76L566.24,114.76L566.24,121.309L566.783,121.309L566.783,108.211L567.328,108.211L567.328,68.918L567.87,68.918L567.87,95.113L568.413,95.113L568.413,82.015L569.5,82.015L569.5,55.82L570.043,55.82L570.043,82.015L570.588,82.015L570.588,121.309L571.13,121.309L571.13,101.662L571.673,101.662L571.673,68.918L572.218,68.918L572.218,82.015L572.76,82.015L572.76,29.624L573.305,29.624L573.305,95.113L573.848,95.113L573.848,108.211L574.39,108.211L574.39,55.82L574.935,55.82L574.935,82.015L575.478,82.015L575.478,42.722L576.565,42.722L576.565,68.918L577.108,68.918L577.108,95.113L577.65,95.113L577.65,55.82L578.195,55.82L578.195,88.564L578.738,88.564L578.738,75.467L579.283,75.467L579.283,121.309L579.825,121.309L579.825,134.407L580.367,134.407L580.367,147.505L580.913,147.505L580.913,108.211L581.455,108.211L581.455,42.722L581.997,42.722L581.997,121.309L582.543,121.309L582.543,88.564L583.085,88.564L583.085,121.309L583.63,121.309L583.63,95.113L584.173,95.113L584.173,82.015L584.715,82.015L584.715,121.309L585.26,121.309L585.26,114.76L585.803,114.76L585.803,127.858L586.345,127.858L586.345,114.76L586.89,114.76L586.89,42.722L587.433,42.722L587.433,82.015L587.975,82.015L587.975,160.602L588.52,160.602L588.52,42.722L589.063,42.722L589.063,108.211L590.15,108.211L590.15,121.309L590.693,121.309L590.693,95.113L591.238,95.113L591.238,82.015L591.78,82.015L591.78,68.918L592.323,68.918L592.323,62.369L592.867,62.369L592.867,95.113L595.04,95.113L595.04,108.211L595.585,108.211L595.585,95.113L596.128,95.113L596.128,82.015L596.67,82.015L596.67,121.309L597.215,121.309L597.215,95.113L597.758,95.113L597.758,121.309L598.3,121.309L598.3,68.918L599.388,68.918L599.388,95.113L599.933,95.113L599.933,42.722L600.475,42.722L600.475,95.113L601.018,95.113L601.018,68.918L601.563,68.918L601.563,147.505L602.105,147.505L602.105,108.211L602.648,108.211L602.648,42.722L603.193,42.722L603.193,29.624L603.735,29.624L603.735,55.82L604.278,55.82L604.278,108.211L604.823,108.211L604.823,127.858L605.365,127.858L605.365,114.76L605.91,114.76L605.91,88.564L606.453,88.564L606.453,82.015L606.995,82.015L606.995,95.113L607.54,95.113L607.54,134.407L608.083,134.407L608.083,121.309L608.625,121.309L608.625,147.505L609.17,147.505L609.17,82.015L609.713,82.015L609.713,95.113L610.255,95.113L610.255,108.211L611.343,108.211L611.343,82.015L611.888,82.015" style="fill:none;fill-rule:nonzero;stroke:black;stroke-width:0.75px;"/>
    </g>
</svg>
